{
    "asset" : {
        "generator" : "Khronos glTF Blender I/O v1.6.16",
        "version" : "2.0"
    },
    "scene" : 0,
    "scenes" : [
        {
            "name" : "Scene",
            "nodes" : [
                0
            ]
        }
    ],
    "nodes" : [
        {
            "mesh" : 0,
            "name" : "Solid"
        }
    ],
    "materials" : [
        {
            "doubleSided" : true,
            "name" : "color_96a2da",
            "pbrMetallicRoughness" : {
                "baseColorFactor" : [
                    0.5906188488006592,
                    0.637596845626831,
                    0.8549926280975342,
                    1
                ],
                "metallicFactor" : 0
            }
        }
    ],
    "meshes" : [
        {
            "name" : "Solid",
            "primitives" : [
                {
                    "attributes" : {
                        "POSITION" : 0,
                        "NORMAL" : 1
                    },
                    "indices" : 2,
                    "material" : 0
                }
            ]
        }
    ],
    "accessors" : [
        {
            "bufferView" : 0,
            "componentType" : 5126,
            "count" : 50418,
            "max" : [
                0.34347453713417053,
                1,
                0.25234150886535645
            ],
            "min" : [
                -0.34347453713417053,
                -7.456136152939052e-09,
                -0.25218358635902405
            ],
            "type" : "VEC3"
        },
        {
            "bufferView" : 1,
            "componentType" : 5126,
            "count" : 50418,
            "type" : "VEC3"
        },
        {
            "bufferView" : 2,
            "componentType" : 5123,
            "count" : 78486,
            "type" : "SCALAR"
        }
    ],
    "bufferViews" : [
        {
            "buffer" : 0,
            "byteLength" : 605016,
            "byteOffset" : 0
        },
        {
            "buffer" : 0,
            "byteLength" : 605016,
            "byteOffset" : 605016
        },
        {
            "buffer" : 0,
            "byteLength" : 156972,
            "byteOffset" : 1210032
        }
    ],
    "buffers" : [
        {
            "byteLength" : 1367004,
            "uri" : "uefa-champions-league-trophy.bin"
        }
    ]
}
